<svg width="1448" height="530" viewBox="0 0 1448 530" fill="none" xmlns="http://www.w3.org/2000/svg">
<mask id="mask0" mask-type="alpha" maskUnits="userSpaceOnUse" x="4" y="0" width="1440" height="522">
<rect x="4" width="1440" height="522" fill="#C4C4C4"/>
</mask>
<g mask="url(#mask0)">
<path d="M-101.05 43.4443C-69.2876 129.925 29.0238 296.588 168.168 271.394C342.099 239.901 505.206 204.313 653.68 365.138C802.154 525.963 1073.37 705.966 1185.22 557.225C1297.07 408.483 1266.5 324.795 1448.78 397.311" stroke="white" stroke-opacity="0.2"/>
<path d="M-100.743 121.618C-68.9807 208.098 29.3306 374.762 168.475 349.567C342.405 318.075 505.513 282.486 653.987 443.311C802.46 604.137 1073.67 784.139 1185.52 635.398C1297.38 486.657 1266.81 402.968 1449.08 475.485" stroke="white" stroke-opacity="0.2"/>
<path d="M-100.437 199.792C-68.6739 286.273 29.6374 452.936 168.782 427.742C342.712 396.249 505.82 360.66 654.294 521.485C802.767 682.311 1073.98 862.313 1185.83 713.572C1297.68 564.831 1267.12 481.143 1449.39 553.659" stroke="white" stroke-opacity="0.2"/>
<path d="M-100.13 277.965C-68.367 364.446 29.9443 531.109 169.089 505.915C343.019 474.422 506.127 438.833 654.601 599.659C803.074 760.484 1074.29 940.487 1186.14 791.745C1297.99 643.004 1267.43 559.316 1449.7 631.832" stroke="white" stroke-opacity="0.2"/>
<path d="M-99.8229 356.139C-68.0603 442.62 30.2511 609.283 169.395 584.089C343.326 552.596 506.434 517.007 654.907 677.833C803.381 838.658 1074.6 1018.66 1186.45 869.919C1298.3 721.178 1267.73 637.49 1450 710.006" stroke="white" stroke-opacity="0.2"/>
</g>
</svg>
