<svg width="1440" height="638" viewBox="0 0 1440 638" fill="none" xmlns="http://www.w3.org/2000/svg">
<mask id="mask0" mask-type="alpha" maskUnits="userSpaceOnUse" x="0" y="0" width="1440" height="638">
<rect y="0.73291" width="1440" height="637.267" fill="#C4C4C4"/>
</mask>
<g mask="url(#mask0)">
<path d="M-49.3066 -61.3816C-16.9434 9.53956 83.9841 144.407 228.788 116.506C409.793 81.6292 579.58 43.8482 732.685 171.376C885.791 298.904 1166.32 436.514 1283.68 306.412C1401.04 176.31 1369.91 107.671 1558.8 159.547" stroke="#DFDFDF"/>
<path d="M-49.5736 4.11234C-17.2103 75.0335 83.7172 209.901 228.521 182C409.526 147.123 579.313 109.342 732.419 236.87C885.524 364.398 1166.05 502.008 1283.42 371.906C1400.78 241.804 1369.64 173.165 1558.53 225.041" stroke="#DFDFDF"/>
<path d="M-49.8405 69.6074C-17.4773 140.529 83.4502 275.396 228.254 247.495C409.259 212.618 579.046 174.837 732.152 302.365C885.257 429.893 1165.79 567.503 1283.15 437.401C1400.51 307.299 1369.37 238.66 1558.27 290.536" stroke="#DFDFDF"/>
<path d="M-50.1075 135.101C-17.7442 206.023 83.1832 340.89 227.987 312.989C408.992 278.112 578.779 240.331 731.885 367.859C884.99 495.387 1165.52 632.997 1282.88 502.895C1400.24 372.794 1369.11 304.154 1558 356.03" stroke="#DFDFDF"/>
<path d="M-50.3746 200.596C-18.0113 271.517 82.9161 406.384 227.72 378.483C408.725 343.607 578.512 305.826 731.618 433.354C884.723 560.882 1165.25 698.492 1282.61 568.39C1399.98 438.288 1368.84 369.649 1557.73 421.525" stroke="#DFDFDF"/>
</g>
</svg>
