<svg width="1440" height="745" viewBox="0 0 1440 745" fill="none" xmlns="http://www.w3.org/2000/svg">
<path fill-rule="evenodd" clip-rule="evenodd" d="M170.452 497.794C177.883 473.833 187.008 445.057 203.309 411.99C219.684 378.772 250.56 360.994 290.346 354.738C330.119 348.484 378.845 353.732 431.051 366.593C535.469 392.316 653.965 448.538 742.939 504.448C831.794 560.284 911.475 576.37 987.956 572.851C1059.82 569.544 1128.87 548.928 1200.1 527.661L1200.15 527.647C1204.73 526.279 1209.33 524.907 1213.93 523.538C1275.04 505.358 1338.93 526.943 1393.91 561.212C1448.9 595.487 1495.06 642.505 1520.77 675.368L1519.98 675.984C1494.33 643.193 1448.25 596.262 1393.38 562.061C1338.5 527.853 1274.92 506.436 1214.21 524.496C1209.69 525.843 1205.17 527.191 1200.66 528.537L1200.43 528.608L1200.36 528.628C1129.16 549.887 1060 570.537 988.002 573.85C911.322 577.378 831.438 561.241 742.407 505.295C653.496 449.424 535.099 393.255 430.812 367.564C378.665 354.718 330.087 349.502 290.501 355.726C250.929 361.948 220.395 379.591 204.206 412.432C187.942 445.424 178.836 474.137 171.407 498.09L170.593 500.718C163.557 523.43 157.869 541.791 148.634 555.236C139.008 569.25 125.543 577.911 102.818 580.731C80.1331 583.546 48.1937 580.547 1.56116 571.27L1.75631 570.289C48.3725 579.563 80.1787 582.533 102.695 579.739C125.171 576.949 138.364 568.421 147.81 554.67C156.956 541.353 162.603 523.127 169.669 500.323L170.452 497.794ZM150.219 435.171C157.65 411.21 166.775 382.434 183.076 349.367C199.45 316.149 230.327 298.371 270.113 292.116C309.885 285.862 358.612 291.109 410.818 303.97C515.236 329.694 633.732 385.915 722.706 441.826C811.56 497.661 891.242 513.748 967.723 510.228C1039.59 506.922 1108.64 486.306 1179.87 465.039C1184.47 463.665 1189.08 462.289 1193.7 460.915C1254.8 442.735 1318.7 464.32 1373.68 498.589C1428.67 532.864 1474.83 579.882 1500.53 612.745L1499.74 613.361C1474.1 580.571 1428.02 533.639 1373.15 499.438C1318.27 465.231 1254.69 443.814 1193.98 461.874C1189.36 463.249 1184.75 464.626 1180.14 466.001L1180.12 466.006C1108.92 487.265 1039.76 507.915 967.769 511.227C891.089 514.756 811.205 498.619 722.174 442.672C633.263 386.801 514.866 330.633 410.579 304.941C358.432 292.095 309.853 286.879 270.268 293.103C230.696 299.326 200.162 316.968 183.973 349.809C167.709 382.801 158.603 411.514 151.174 435.468L150.36 438.095C143.324 460.807 137.636 479.168 128.401 492.613C118.774 506.628 105.31 515.288 82.5851 518.109C59.9 520.924 27.9606 517.925 -18.6719 508.647L-18.4768 507.667C28.1394 516.941 59.9457 519.911 82.462 517.116C104.938 514.327 118.131 505.798 127.576 492.047C136.723 478.731 142.37 460.504 149.435 437.7L150.219 435.171ZM162.843 286.745C146.543 319.812 137.417 348.588 129.986 372.549L129.203 375.078C122.138 397.882 116.491 416.109 107.344 429.425C97.8983 443.176 84.7054 451.705 62.2293 454.494C39.7129 457.289 7.90671 454.319 -38.7095 445.044L-38.9047 446.025C7.72785 455.303 39.6673 458.302 62.3525 455.486C85.0776 452.666 98.5417 444.006 108.168 429.991C117.403 416.546 123.091 398.185 130.127 375.473L130.941 372.845C138.37 348.892 147.476 320.179 163.74 287.187C179.929 254.346 210.464 236.704 250.035 230.481C289.621 224.257 338.199 229.473 390.346 242.319C494.633 268.011 613.031 324.179 701.941 380.05C790.972 435.997 870.856 452.134 947.536 448.605C1019.53 445.293 1088.69 424.643 1159.89 403.384C1164.5 402.007 1169.12 400.629 1173.75 399.252C1234.45 381.191 1298.04 402.609 1352.92 436.816C1407.79 471.017 1453.87 517.949 1479.51 550.739L1480.3 550.123C1454.6 517.26 1408.44 470.242 1353.45 435.967C1298.47 401.698 1234.57 380.113 1173.46 398.293C1168.84 399.667 1164.24 401.043 1159.64 402.416C1088.41 423.684 1019.36 444.299 947.49 447.606C871.009 451.126 791.328 435.039 702.473 379.204C613.5 323.293 495.003 267.072 390.585 241.348C338.379 228.487 289.653 223.24 249.88 229.494C210.094 235.749 179.218 253.527 162.843 286.745ZM109.753 309.927C117.184 285.965 126.31 257.189 142.61 224.122C158.985 190.904 189.861 173.127 229.647 166.871C269.42 160.617 318.146 165.865 370.352 178.726C474.77 204.449 593.267 260.67 682.24 316.581C771.095 372.417 850.776 388.503 927.257 384.984C999.124 381.677 1068.17 361.061 1139.4 339.794L1139.59 339.737C1144.13 338.383 1148.67 337.026 1153.23 335.671C1214.34 317.49 1278.23 339.076 1333.21 373.345C1388.2 407.62 1434.37 454.638 1460.07 487.5L1459.28 488.117C1433.63 455.326 1387.56 408.394 1332.68 374.193C1277.8 339.986 1214.22 318.569 1153.52 336.629C1148.94 337.991 1144.37 339.355 1139.81 340.716L1139.8 340.72L1139.66 340.761C1068.46 362.02 999.297 382.67 927.303 385.983C850.623 389.511 770.739 373.374 681.708 317.428C592.797 261.557 474.4 205.388 370.113 179.697C317.966 166.85 269.388 161.635 229.802 167.859C190.231 174.081 159.696 191.723 143.507 224.565C127.243 257.557 118.137 286.269 110.708 310.223L109.894 312.851C102.858 335.563 97.1703 353.924 87.935 367.369C78.3087 381.383 64.8446 390.044 42.1195 392.864C19.4343 395.679 -12.5051 392.68 -59.1376 383.403L-58.9425 382.422C-12.3263 391.696 19.48 394.666 41.9963 391.872C64.4725 389.082 77.6654 380.554 87.1107 366.803C96.2576 353.486 101.905 335.259 108.97 312.455L109.753 309.927ZM122.377 161.5C106.077 194.567 96.951 223.343 89.5203 247.304L88.7367 249.833C81.6715 272.637 76.0245 290.864 66.8777 304.18C57.4323 317.931 44.2394 326.46 21.7632 329.249C-0.753119 332.043 -32.5593 329.073 -79.1756 319.799L-79.3707 320.78C-32.7382 330.057 -0.798736 333.057 21.8864 330.241C44.6115 327.421 58.0757 318.761 67.7019 304.746C76.9372 291.301 82.6252 272.94 89.661 250.228L90.4754 247.6C97.9037 223.647 107.01 194.934 123.274 161.942C139.463 129.101 169.998 111.458 209.569 105.236C249.155 99.0119 297.733 104.228 349.88 117.074C454.167 142.765 572.564 198.934 661.475 254.805C750.506 310.752 830.39 326.889 907.07 323.36C979.064 320.047 1048.22 299.398 1119.43 278.139C1124.04 276.762 1128.65 275.383 1133.28 274.007C1193.99 255.946 1257.57 277.364 1312.45 311.571C1367.32 345.772 1413.4 392.703 1439.05 425.494L1439.83 424.878C1414.13 392.015 1367.97 344.997 1312.98 310.722C1258 276.453 1194.11 254.868 1133 273.048C1128.38 274.422 1123.77 275.798 1119.17 277.171L1119.17 277.172C1047.94 298.439 978.89 319.054 907.024 322.361C830.543 325.88 750.862 309.794 662.007 253.959C573.034 198.048 454.537 141.827 350.119 116.103C297.913 103.242 249.187 97.9946 209.414 104.248C169.628 110.504 138.752 128.282 122.377 161.5Z" fill="#DFDFDF"/>
</svg>
