<svg width="52" height="41" viewBox="0 0 52 41" fill="none" xmlns="http://www.w3.org/2000/svg">
<path d="M42.2389 20.878C48.0704 20.878 52.0001 24.934 52.0001 30.9437C52.0001 36.3517 47.4835 40.8571 41.3661 40.8571C34.6655 40.8571 29.7144 35.4491 29.7144 27.1886C29.7144 8.41286 43.4052 0.902571 52.0001 0V8.26057C46.1724 9.31171 39.6204 15.1691 39.3269 21.632C39.6204 21.4834 40.7829 20.878 42.2389 20.878Z" fill="#2C3E50" fill-opacity="0.25"/>
<path d="M12.5283 20.878C18.3523 20.878 22.2857 24.934 22.2857 30.9437C22.2857 36.3517 17.7691 40.8571 11.6517 40.8571C4.95114 40.8571 0 35.4491 0 27.1886C0 8.41286 13.6909 0.902571 22.2857 0V8.26057C16.458 9.31171 9.906 15.1691 9.61257 21.632C9.906 21.4834 11.0686 20.878 12.5283 20.878Z" fill="#2C3E50" fill-opacity="0.25"/>
</svg>
